# xmcd
#
# Track frame offsets:
#	150
#	18170
#	37080
#	58920
#	88691
#	105201
#	124443
#	140330
#	159704
#	178525
#	199463
#	213242
#	229183
#	250822
#	275765
#
# Disc length: 3855 seconds
# Revision: 1
# Processed by: cddbd v1.5.2PL0 Copyright (c) Steve Scherf et al.
# Submitted via: dBpowerAMP V12.0
#
DISCID=db0f0d0f
DTITLE=Fathead - Where's the Blues Taking Me
DYEAR=2010
DGENRE=Blues
TTITLE0=Shame on Ya
TTITLE1=Where's the Blues Taking Me?
TTITLE2=Red Maple Road
TTITLE3=Lay It on the Line
TTITLE4=Carry On
TTITLE5=(I Like My Sex) Drip Dry
TTITLE6=Freedom Day
TTITLE7=Easy Going Man
TTITLE8=Harp Sauce
TTITLE9=Trouble in the World No More
TTITLE10=Big City Blues
TTITLE11=Poor Frank
TTITLE12=The Boogieman
TTITLE13=Don't Leave Me Tonight
TTITLE14=Lonely Teardrops
EXTD=
EXTT0=
EXTT1=
EXTT2=
EXTT3=
EXTT4=
EXTT5=
EXTT6=
EXTT7=
EXTT8=
EXTT9=
EXTT10=
EXTT11=
EXTT12=
EXTT13=
EXTT14=
PLAYORDER=
